<svg width="20" height="20" viewBox="0 0 20 20" fill="none" xmlns="http://www.w3.org/2000/svg">
<path opacity="0.2" d="M14.34 0H5.67C2.28 0 0 2.38 0 5.92V14.09C0 17.62 2.28 20 5.67 20H14.34C17.73 20 20 17.62 20 14.09V5.92C20 2.38 17.73 0 14.34 0Z" fill="#4568F9"/>
<path d="M8.81308 13.248C8.58908 13.248 8.36508 13.163 8.19408 12.992L5.82108 10.619C5.47908 10.277 5.47908 9.72297 5.82108 9.38196C6.16308 9.03996 6.71608 9.03896 7.05808 9.38096L8.81308 11.136L12.9411 7.00796C13.2831 6.66596 13.8361 6.66596 14.1781 7.00796C14.5201 7.34996 14.5201 7.90396 14.1781 8.24596L9.43208 12.992C9.26108 13.163 9.03708 13.248 8.81308 13.248Z" fill="#4568F9"/>
</svg>
