<svg width="110" height="22" viewBox="0 0 110 22" fill="none" xmlns="http://www.w3.org/2000/svg">
<path d="M10.9871 17.7021C10.6859 17.5354 10.32 17.5354 10.0187 17.7022L5.8174 20.0276C5.08692 20.4319 4.21192 19.816 4.34613 18.9919L5.17278 13.9166C5.2238 13.6033 5.12311 13.2845 4.90146 13.0574L1.35912 9.42762C0.790662 8.84514 1.11903 7.86377 1.92357 7.74069L6.72658 7.00591C7.05623 6.95548 7.33904 6.74404 7.48068 6.44213L9.59714 1.93071C9.95707 1.16351 11.0483 1.16372 11.408 1.93105L13.5203 6.43816C13.6619 6.74024 13.9448 6.95182 14.2746 7.00227L19.0774 7.73702C19.8819 7.8601 20.2103 8.84147 19.6418 9.42395L16.0995 13.0537C15.8778 13.2808 15.7771 13.5997 15.8282 13.9129L16.6548 18.9885C16.7891 19.8125 15.9142 20.4285 15.1837 20.0243L10.9871 17.7021Z" fill="#FFCB05"/>
<path d="M33.0692 17.7021C32.7679 17.5354 32.402 17.5354 32.1007 17.7022L27.8994 20.0276C27.169 20.4319 26.2939 19.816 26.4282 18.9919L27.2548 13.9166C27.3058 13.6033 27.2051 13.2845 26.9835 13.0574L23.4412 9.42762C22.8727 8.84514 23.2011 7.86377 24.0056 7.74069L28.8086 7.00591C29.1383 6.95548 29.4211 6.74404 29.5627 6.44213L31.6792 1.93071C32.0391 1.16351 33.1304 1.16372 33.49 1.93105L35.6024 6.43816C35.7439 6.74024 36.0268 6.95182 36.3566 7.00227L41.1594 7.73702C41.9639 7.8601 42.2923 8.84147 41.7238 9.42395L38.1815 13.0537C37.9599 13.2808 37.8592 13.5997 37.9102 13.9129L38.7369 18.9885C38.8711 19.8125 37.9962 20.4285 37.2657 20.0243L33.0692 17.7021Z" fill="#FFCB05"/>
<path d="M55.1473 17.7021C54.846 17.5354 54.4801 17.5354 54.1789 17.7022L49.9776 20.0276C49.2471 20.4319 48.3721 19.816 48.5063 18.9919L49.3329 13.9166C49.384 13.6033 49.2833 13.2845 49.0616 13.0574L45.5193 9.42762C44.9508 8.84514 45.2792 7.86377 46.0837 7.74069L50.8867 7.00591C51.2164 6.95548 51.4992 6.74404 51.6408 6.44213L53.7573 1.93071C54.1172 1.16351 55.2085 1.16372 55.5681 1.93105L57.6805 6.43816C57.8221 6.74024 58.105 6.95182 58.4347 7.00227L63.2375 7.73702C64.0421 7.8601 64.3704 8.84147 63.802 9.42395L60.2596 13.0537C60.038 13.2808 59.9373 13.5997 59.9883 13.9129L60.815 18.9885C60.9492 19.8125 60.0743 20.4285 59.3438 20.0243L55.1473 17.7021Z" fill="#FFCB05"/>
<path d="M77.2215 17.7021C76.9202 17.5354 76.5544 17.5354 76.2531 17.7022L72.0518 20.0276C71.3213 20.4319 70.4463 19.816 70.5805 18.9919L71.4072 13.9166C71.4582 13.6033 71.3575 13.2845 71.1358 13.0574L67.5935 9.42762C67.025 8.84514 67.3534 7.86377 68.1579 7.74069L72.961 7.00591C73.2906 6.95548 73.5734 6.74404 73.7151 6.44213L75.8315 1.93071C76.1914 1.16351 77.2827 1.16372 77.6423 1.93105L79.7547 6.43816C79.8963 6.74024 80.1792 6.95182 80.509 7.00227L85.3117 7.73702C86.1163 7.8601 86.4446 8.84147 85.8762 9.42395L82.3339 13.0537C82.1122 13.2808 82.0115 13.5997 82.0625 13.9129L82.8892 18.9885C83.0234 19.8125 82.1485 20.4285 81.4181 20.0243L77.2215 17.7021Z" fill="#FFCB05"/>
<path d="M99.2999 17.7021C98.9986 17.5354 98.6327 17.5354 98.3315 17.7022L94.1301 20.0276C93.3997 20.4319 92.5247 19.816 92.6589 18.9919L93.4855 13.9166C93.5365 13.6033 93.4359 13.2845 93.2142 13.0574L89.6719 9.42762C89.1034 8.84514 89.4318 7.86377 90.2363 7.74069L95.0393 7.00591C95.369 6.95548 95.6518 6.74404 95.7934 6.44213L97.9099 1.93071C98.2698 1.16351 99.3611 1.16372 99.7207 1.93105L101.833 6.43816C101.975 6.74024 102.258 6.95182 102.587 7.00227L107.39 7.73702C108.195 7.8601 108.523 8.84147 107.955 9.42395L104.412 13.0537C104.191 13.2808 104.09 13.5997 104.141 13.9129L104.968 18.9885C105.102 19.8125 104.227 20.4285 103.496 20.0243L99.2999 17.7021Z" fill="#FFCB05"/>
</svg>
