<svg width="118" height="21" viewBox="0 0 118 21" fill="none" xmlns="http://www.w3.org/2000/svg">
<path d="M20.4734 7.82235L14.1309 6.90989L11.2956 1.21995C11.2182 1.06417 11.0908 0.938054 10.9334 0.861397C10.5387 0.668518 10.0591 0.829251 9.86173 1.21995L7.02645 6.90989L0.683925 7.82235C0.509062 7.84708 0.349187 7.92869 0.226783 8.05233C0.0788034 8.20289 -0.00274012 8.40544 7.03097e-05 8.61549C0.00288074 8.82553 0.0898152 9.02588 0.241771 9.17251L4.83067 13.6013L3.74652 19.855C3.7211 20.0005 3.73736 20.1501 3.79347 20.2869C3.84957 20.4237 3.94327 20.5422 4.06395 20.629C4.18462 20.7157 4.32744 20.7673 4.4762 20.7778C4.62497 20.7883 4.77373 20.7573 4.90561 20.6884L10.5787 17.7358L16.2517 20.6884C16.4066 20.77 16.5865 20.7972 16.7588 20.7675C17.1935 20.6933 17.4858 20.2853 17.4108 19.855L16.3267 13.6013L20.9156 9.17251C21.0405 9.05134 21.1229 8.89308 21.1479 8.71998C21.2153 8.28724 20.9106 7.88665 20.4734 7.82235Z" fill="#FFCB05"/>
<path d="M44.6306 7.82235L38.2881 6.90989L35.4528 1.21995C35.3754 1.06417 35.248 0.938054 35.0906 0.861397C34.6959 0.668518 34.2163 0.829251 34.019 1.21995L31.1837 6.90989L24.8412 7.82235C24.6663 7.84708 24.5064 7.92869 24.384 8.05233C24.236 8.20289 24.1545 8.40544 24.1573 8.61549C24.1601 8.82553 24.247 9.02588 24.399 9.17251L28.9879 13.6013L27.9038 19.855C27.8783 20.0005 27.8946 20.1501 27.9507 20.2869C28.0068 20.4237 28.1005 20.5422 28.2212 20.629C28.3418 20.7157 28.4847 20.7673 28.6334 20.7778C28.7822 20.7883 28.931 20.7573 29.0628 20.6884L34.7359 17.7358L40.4089 20.6884C40.5638 20.77 40.7437 20.7972 40.916 20.7675C41.3507 20.6933 41.643 20.2853 41.568 19.855L40.4839 13.6013L45.0728 9.17251C45.1977 9.05134 45.2801 8.89308 45.3051 8.71998C45.3726 8.28724 45.0678 7.88665 44.6306 7.82235Z" fill="#FFCB05"/>
<path d="M68.7879 7.82235L62.4453 6.90989L59.6101 1.21995C59.5326 1.06417 59.4052 0.938054 59.2478 0.861397C58.8532 0.668518 58.3735 0.829251 58.1762 1.21995L55.3409 6.90989L48.9984 7.82235C48.8235 7.84708 48.6636 7.92869 48.5412 8.05233C48.3933 8.20289 48.3117 8.40544 48.3145 8.61549C48.3173 8.82553 48.4043 9.02588 48.5562 9.17251L53.1451 13.6013L52.061 19.855C52.0356 20.0005 52.0518 20.1501 52.1079 20.2869C52.164 20.4237 52.2577 20.5422 52.3784 20.629C52.4991 20.7157 52.6419 20.7673 52.7907 20.7778C52.9394 20.7883 53.0882 20.7573 53.2201 20.6884L58.8931 17.7358L64.5662 20.6884C64.7211 20.77 64.9009 20.7972 65.0733 20.7675C65.5079 20.6933 65.8002 20.2853 65.7253 19.855L64.6411 13.6013L69.23 9.17251C69.3549 9.05134 69.4374 8.89308 69.4623 8.71998C69.5298 8.28724 69.225 7.88665 68.7879 7.82235Z" fill="#FFCB05"/>
<path d="M92.9451 7.82235L86.6026 6.90989L83.7673 1.21995C83.6898 1.06417 83.5624 0.938054 83.4051 0.861397C83.0104 0.668518 82.5308 0.829251 82.3334 1.21995L79.4981 6.90989L73.1556 7.82235C72.9807 7.84708 72.8209 7.92869 72.6985 8.05233C72.5505 8.20289 72.4689 8.40544 72.4717 8.61549C72.4746 8.82553 72.5615 9.02588 72.7135 9.17251L77.3024 13.6013L76.2182 19.855C76.1928 20.0005 76.209 20.1501 76.2651 20.2869C76.3213 20.4237 76.415 20.5422 76.5356 20.629C76.6563 20.7157 76.7991 20.7673 76.9479 20.7778C77.0966 20.7883 77.2454 20.7573 77.3773 20.6884L83.0503 17.7358L88.7234 20.6884C88.8783 20.77 89.0581 20.7972 89.2305 20.7675C89.6652 20.6933 89.9574 20.2853 89.8825 19.855L88.7983 13.6013L93.3872 9.17251C93.5121 9.05134 93.5946 8.89308 93.6196 8.71998C93.687 8.28724 93.3822 7.88665 92.9451 7.82235Z" fill="#FFCB05"/>
<path d="M103.766 6.93829L106.678 1.16911C106.734 1.05305 106.821 0.955025 106.93 0.886195C107.039 0.817365 107.165 0.780496 107.294 0.779785C107.538 0.779785 107.782 0.909115 107.914 1.16911L110.826 6.93829L117.356 7.86627C117.519 7.89186 117.668 7.97282 117.778 8.09548C117.888 8.21814 117.953 8.37499 117.96 8.53959C117.97 8.64917 117.954 8.75943 117.915 8.86216C117.876 8.9649 117.814 9.05744 117.734 9.13291L113.037 13.6075L114.143 19.914C114.247 20.5046 113.663 20.9673 113.148 20.7033L107.294 17.6954L101.442 20.7033C101.381 20.7351 101.315 20.7575 101.247 20.7699C100.791 20.8499 100.357 20.4313 100.447 19.914L101.554 13.6075L96.8582 9.13291C96.7852 9.06384 96.7272 8.9805 96.6878 8.88807C96.6483 8.79564 96.6283 8.69608 96.6289 8.59559C96.629 8.45351 96.6682 8.31419 96.7423 8.19293C96.7948 8.10502 96.8664 8.03004 96.9518 7.9735C97.0371 7.91696 97.1341 7.88032 97.2356 7.86627L103.766 6.93829ZM107.294 16.1487C107.402 16.1483 107.508 16.1739 107.603 16.2234L112.518 18.7487L111.593 13.4728C111.571 13.3515 111.579 13.2266 111.617 13.1092C111.654 12.9918 111.72 12.8855 111.809 12.7995L115.684 9.10624L110.282 8.33826C110.17 8.32137 110.064 8.27761 109.973 8.21073C109.881 8.14386 109.808 8.05586 109.758 7.95427L107.295 3.07706L107.294 3.08106V16.1474V16.1487Z" fill="#FFCB05"/>
</svg>
