<svg width="24" height="24" viewBox="0 0 24 24" fill="none" xmlns="http://www.w3.org/2000/svg">
<path d="M11.8266 24C11.6913 23.9998 11.5587 23.9635 11.4423 23.8944L9.49785 22.7337C4.74228 19.8775 1.5769 15.0162 0.582239 9.05505L0.00957016 5.6108C-0.0205211 5.42382 0.0209256 5.23248 0.125771 5.07467C0.23043 4.91683 0.390729 4.80422 0.574681 4.75918L3.94359 3.9151C5.88267 3.50101 7.71337 2.68459 9.31709 1.51856L11.4123 0.12434C11.5353 0.0433377 11.6794 0 11.8268 0C11.9742 0 12.1182 0.0433391 12.2413 0.12434L14.3365 1.51856C15.9408 2.68192 17.7714 3.49587 19.71 3.90769L23.0789 4.75913C23.2628 4.80417 23.4231 4.91678 23.5278 5.07462C23.6327 5.23245 23.6741 5.42379 23.644 5.61075L23.0713 9.055C22.0764 15.0162 18.9112 19.8776 14.1557 22.7337L12.2113 23.8943C12.0949 23.9634 11.9623 23.9998 11.8269 24L11.8266 24ZM1.61453 6.04039L2.06665 8.78363C2.99363 14.3306 5.90286 18.8523 10.2739 21.4376L11.8264 22.3721L13.3788 21.4376C17.7501 18.8526 20.6593 14.3306 21.6239 8.79865L22.0761 6.05541L19.3629 5.37712C17.2589 4.91836 15.271 4.03343 13.5224 2.77695L11.8266 1.66165L10.1534 2.77695C8.39794 4.03624 6.40203 4.92141 4.29013 5.37712L1.61453 6.04039Z" fill="white"/>
<path d="M11.8266 5.28662C9.79191 6.73821 7.48471 7.76358 5.0437 8.30127C5.79733 13.0116 8.17134 16.6592 11.8266 18.8525C15.4818 16.6594 17.8561 13.012 18.6095 8.30127C16.1684 7.76358 13.8613 6.73821 11.8266 5.28662ZM11.608 14.1121C11.4659 14.2531 11.2732 14.3318 11.073 14.3307C10.8726 14.3318 10.6801 14.2531 10.5378 14.1121L9.18873 12.7631C9.0485 12.6219 8.96958 12.4308 8.96958 12.2317C8.96958 12.0326 9.0485 11.8416 9.18873 11.7004C9.3303 11.5577 9.52295 11.4775 9.72395 11.4775C9.92475 11.4775 10.1174 11.5577 10.259 11.7004L11.073 12.5069L13.6429 9.93696V9.93677C13.8368 9.77061 14.1018 9.71402 14.3469 9.7865C14.5918 9.85899 14.7833 10.0505 14.8558 10.2956C14.9283 10.5405 14.8717 10.8054 14.7055 10.9994L11.608 14.1121Z" fill="white"/>
</svg>
